<mxfile host="app.diagrams.net" modified="2022-10-14T08:13:10.718Z" agent="5.0 (Windows NT 10.0; Win64; x64) AppleWebKit/537.36 (KHTML, like Gecko) Chrome/95.0.4638.69 Safari/537.36" etag="SJRu-Lbd31EfvQC5Y5Zx" version="20.4.0" type="github">
  <diagram id="DyBXj30k6VvegKpyl4mV" name="第 1 页">
    <mxGraphModel dx="782" dy="375" grid="1" gridSize="10" guides="1" tooltips="1" connect="1" arrows="1" fold="1" page="1" pageScale="1" pageWidth="413" pageHeight="583" math="0" shadow="0">
      <root>
        <mxCell id="0" />
        <mxCell id="1" parent="0" />
        <mxCell id="-Mx0--tAxkU6gZWP3IW6-1" value="" style="shape=cube;whiteSpace=wrap;html=1;boundedLbl=1;backgroundOutline=1;darkOpacity=0.05;darkOpacity2=0.1;size=20;direction=east;flipH=1;fillColor=#dae8fc;strokeColor=#6c8ebf;" parent="1" vertex="1">
          <mxGeometry x="26.73" y="89.08" width="20" height="230" as="geometry" />
        </mxCell>
        <mxCell id="-Mx0--tAxkU6gZWP3IW6-2" value="" style="edgeStyle=orthogonalEdgeStyle;rounded=0;orthogonalLoop=1;jettySize=auto;html=1;" parent="1" source="-Mx0--tAxkU6gZWP3IW6-3" target="-Mx0--tAxkU6gZWP3IW6-23" edge="1">
          <mxGeometry relative="1" as="geometry" />
        </mxCell>
        <mxCell id="-Mx0--tAxkU6gZWP3IW6-3" value="" style="shape=cube;whiteSpace=wrap;html=1;boundedLbl=1;backgroundOutline=1;darkOpacity=0.05;darkOpacity2=0.1;size=20;direction=east;flipH=1;fillColor=#d5e8d4;strokeColor=#82b366;" parent="1" vertex="1">
          <mxGeometry x="140" y="140" width="36" height="120" as="geometry" />
        </mxCell>
        <mxCell id="-Mx0--tAxkU6gZWP3IW6-4" value="" style="shape=cube;whiteSpace=wrap;html=1;boundedLbl=1;backgroundOutline=1;darkOpacity=0.05;darkOpacity2=0.1;size=7;direction=east;flipH=1;fillColor=#dae8fc;strokeColor=#6c8ebf;" parent="1" vertex="1">
          <mxGeometry x="579.71" y="392.94000000000005" width="30" height="20" as="geometry" />
        </mxCell>
        <mxCell id="-Mx0--tAxkU6gZWP3IW6-5" value="" style="shape=cube;whiteSpace=wrap;html=1;boundedLbl=1;backgroundOutline=1;darkOpacity=0.05;darkOpacity2=0.1;size=7;direction=east;flipH=1;fillColor=#d5e8d4;strokeColor=#82b366;" parent="1" vertex="1">
          <mxGeometry x="579.71" y="422.94000000000005" width="30" height="20" as="geometry" />
        </mxCell>
        <mxCell id="-Mx0--tAxkU6gZWP3IW6-6" value="" style="shape=cube;whiteSpace=wrap;html=1;boundedLbl=1;backgroundOutline=1;darkOpacity=0.05;darkOpacity2=0.1;size=7;direction=east;flipH=1;fillColor=#ffe6cc;strokeColor=#d79b00;" parent="1" vertex="1">
          <mxGeometry x="750" y="69.08000000000001" width="30" height="20" as="geometry" />
        </mxCell>
        <mxCell id="-Mx0--tAxkU6gZWP3IW6-7" value="图片" style="text;html=1;strokeColor=none;fillColor=none;align=left;verticalAlign=middle;whiteSpace=wrap;rounded=0;fontStyle=1" parent="1" vertex="1">
          <mxGeometry x="620.71" y="390" width="138" height="23.88" as="geometry" />
        </mxCell>
        <mxCell id="-Mx0--tAxkU6gZWP3IW6-8" value="卷积层1" style="text;html=1;strokeColor=none;fillColor=none;align=left;verticalAlign=middle;whiteSpace=wrap;rounded=0;fontStyle=1" parent="1" vertex="1">
          <mxGeometry x="620.71" y="420" width="138" height="23.88" as="geometry" />
        </mxCell>
        <mxCell id="-Mx0--tAxkU6gZWP3IW6-9" value="卷积层2" style="text;html=1;strokeColor=none;fillColor=none;align=left;verticalAlign=middle;whiteSpace=wrap;rounded=0;fontStyle=1" parent="1" vertex="1">
          <mxGeometry x="620.71" y="559" width="138" height="23.88" as="geometry" />
        </mxCell>
        <mxCell id="-Mx0--tAxkU6gZWP3IW6-10" value="" style="edgeStyle=orthogonalEdgeStyle;rounded=0;orthogonalLoop=1;jettySize=auto;html=1;" parent="1" edge="1">
          <mxGeometry relative="1" as="geometry">
            <mxPoint x="770" y="204" as="targetPoint" />
            <mxPoint x="635.43" y="204.4" as="sourcePoint" />
            <Array as="points">
              <mxPoint x="740" y="204" />
              <mxPoint x="740" y="204" />
            </Array>
          </mxGeometry>
        </mxCell>
        <mxCell id="-Mx0--tAxkU6gZWP3IW6-11" value="" style="shape=cube;whiteSpace=wrap;html=1;boundedLbl=1;backgroundOutline=1;darkOpacity=0.05;darkOpacity2=0.1;size=20;direction=east;flipH=1;fillColor=#fff2cc;strokeColor=#d6b656;" parent="1" vertex="1">
          <mxGeometry x="593.47" y="139.08" width="40" height="120.92" as="geometry" />
        </mxCell>
        <mxCell id="-Mx0--tAxkU6gZWP3IW6-12" value="" style="shape=cube;whiteSpace=wrap;html=1;boundedLbl=1;backgroundOutline=1;darkOpacity=0.05;darkOpacity2=0.1;size=7;direction=east;flipH=1;fillColor=#ffe6cc;strokeColor=#d79b00;" parent="1" vertex="1">
          <mxGeometry x="579.71" y="560.94" width="30" height="20" as="geometry" />
        </mxCell>
        <mxCell id="-Mx0--tAxkU6gZWP3IW6-13" value="" style="shape=cube;whiteSpace=wrap;html=1;boundedLbl=1;backgroundOutline=1;darkOpacity=0.05;darkOpacity2=0.1;size=7;direction=east;flipH=1;fillColor=#fff2cc;strokeColor=#d6b656;" parent="1" vertex="1">
          <mxGeometry x="579.71" y="463.88000000000005" width="30" height="20" as="geometry" />
        </mxCell>
        <mxCell id="-Mx0--tAxkU6gZWP3IW6-14" value="卷积层2" style="text;html=1;strokeColor=none;fillColor=none;align=left;verticalAlign=middle;whiteSpace=wrap;rounded=0;fontStyle=1" parent="1" vertex="1">
          <mxGeometry x="620.71" y="460.00000000000006" width="138" height="23.88" as="geometry" />
        </mxCell>
        <mxCell id="-Mx0--tAxkU6gZWP3IW6-15" value="" style="shape=cube;whiteSpace=wrap;html=1;boundedLbl=1;backgroundOutline=1;darkOpacity=0.05;darkOpacity2=0.1;size=20;direction=east;flipH=1;fillColor=#dae8fc;strokeColor=#6c8ebf;" parent="1" vertex="1">
          <mxGeometry x="40" y="90" width="20" height="230" as="geometry" />
        </mxCell>
        <mxCell id="-Mx0--tAxkU6gZWP3IW6-16" style="edgeStyle=orthogonalEdgeStyle;rounded=0;orthogonalLoop=1;jettySize=auto;html=1;exitX=0;exitY=0;exitDx=0;exitDy=105.00000000000001;exitPerimeter=0;" parent="1" source="-Mx0--tAxkU6gZWP3IW6-17" target="-Mx0--tAxkU6gZWP3IW6-3" edge="1">
          <mxGeometry relative="1" as="geometry">
            <mxPoint x="120" y="195" as="targetPoint" />
          </mxGeometry>
        </mxCell>
        <mxCell id="-Mx0--tAxkU6gZWP3IW6-17" value="" style="shape=cube;whiteSpace=wrap;html=1;boundedLbl=1;backgroundOutline=1;darkOpacity=0.05;darkOpacity2=0.1;size=20;direction=east;flipH=1;fillColor=#dae8fc;strokeColor=#6c8ebf;" parent="1" vertex="1">
          <mxGeometry x="50" y="90" width="20" height="230" as="geometry" />
        </mxCell>
        <mxCell id="-Mx0--tAxkU6gZWP3IW6-18" style="edgeStyle=orthogonalEdgeStyle;rounded=0;orthogonalLoop=1;jettySize=auto;html=1;exitX=0;exitY=0;exitDx=0;exitDy=85;exitPerimeter=0;entryX=0;entryY=0;entryDx=36;entryDy=70;entryPerimeter=0;" parent="1" source="-Mx0--tAxkU6gZWP3IW6-19" target="-Mx0--tAxkU6gZWP3IW6-21" edge="1">
          <mxGeometry relative="1" as="geometry" />
        </mxCell>
        <mxCell id="-Mx0--tAxkU6gZWP3IW6-19" value="" style="shape=cube;whiteSpace=wrap;html=1;boundedLbl=1;backgroundOutline=1;darkOpacity=0.05;darkOpacity2=0.1;size=20;direction=east;flipH=1;fillColor=#f8cecc;strokeColor=#b85450;" parent="1" vertex="1">
          <mxGeometry x="26.73" y="350" width="20" height="190" as="geometry" />
        </mxCell>
        <mxCell id="-Mx0--tAxkU6gZWP3IW6-29" style="edgeStyle=orthogonalEdgeStyle;rounded=0;orthogonalLoop=1;jettySize=auto;html=1;exitX=0;exitY=0;exitDx=0;exitDy=50.00000000000001;exitPerimeter=0;entryX=0;entryY=0.5;entryDx=0;entryDy=0;" parent="1" source="-Mx0--tAxkU6gZWP3IW6-21" target="-Mx0--tAxkU6gZWP3IW6-26" edge="1">
          <mxGeometry relative="1" as="geometry" />
        </mxCell>
        <mxCell id="-Mx0--tAxkU6gZWP3IW6-21" value="" style="shape=cube;whiteSpace=wrap;html=1;boundedLbl=1;backgroundOutline=1;darkOpacity=0.05;darkOpacity2=0.1;size=20;direction=east;flipH=1;fillColor=#d5e8d4;strokeColor=#82b366;" parent="1" vertex="1">
          <mxGeometry x="140" y="370" width="36" height="120" as="geometry" />
        </mxCell>
        <mxCell id="-Mx0--tAxkU6gZWP3IW6-27" style="edgeStyle=orthogonalEdgeStyle;rounded=0;orthogonalLoop=1;jettySize=auto;html=1;exitX=1;exitY=0.5;exitDx=0;exitDy=0;entryX=0.976;entryY=0.501;entryDx=0;entryDy=0;entryPerimeter=0;" parent="1" source="-Mx0--tAxkU6gZWP3IW6-23" target="-Mx0--tAxkU6gZWP3IW6-11" edge="1">
          <mxGeometry relative="1" as="geometry" />
        </mxCell>
        <mxCell id="-Mx0--tAxkU6gZWP3IW6-23" value="乘" style="ellipse;whiteSpace=wrap;html=1;aspect=fixed;" parent="1" vertex="1">
          <mxGeometry x="350" y="186.43" width="25.31" height="25.31" as="geometry" />
        </mxCell>
        <mxCell id="-Mx0--tAxkU6gZWP3IW6-30" style="edgeStyle=orthogonalEdgeStyle;rounded=0;orthogonalLoop=1;jettySize=auto;html=1;exitX=1;exitY=0.5;exitDx=0;exitDy=0;entryX=0.5;entryY=1;entryDx=0;entryDy=0;" parent="1" source="-Mx0--tAxkU6gZWP3IW6-26" target="-Mx0--tAxkU6gZWP3IW6-23" edge="1">
          <mxGeometry relative="1" as="geometry" />
        </mxCell>
        <mxCell id="-Mx0--tAxkU6gZWP3IW6-26" value="Sigmoid" style="rounded=0;whiteSpace=wrap;html=1;" parent="1" vertex="1">
          <mxGeometry x="219.99999999999997" y="390" width="120" height="60" as="geometry" />
        </mxCell>
      </root>
    </mxGraphModel>
  </diagram>
</mxfile>
